<svg xmlns="http://www.w3.org/2000/svg" viewBox="0 0 1000 480" font-family="PingFang SC, Microsoft YaHei, sans-serif">
  <defs>
    <linearGradient id="hdr" x1="0%" y1="0%" x2="100%" y2="0%">
      <stop offset="0%" style="stop-color:#2F5496"/>
      <stop offset="100%" style="stop-color:#4A90D9"/>
    </linearGradient>
    <linearGradient id="front" x1="0%" y1="0%" x2="0%" y2="100%">
      <stop offset="0%" style="stop-color:#E8F4FD"/>
      <stop offset="100%" style="stop-color:#D0E8F7"/>
    </linearGradient>
    <linearGradient id="back" x1="0%" y1="0%" x2="0%" y2="100%">
      <stop offset="0%" style="stop-color:#E8F8E8"/>
      <stop offset="100%" style="stop-color:#D0F0D0"/>
    </linearGradient>
    <filter id="sh" x="-1%" y="-1%" width="102%" height="102%">
      <feDropShadow dx="1" dy="2" stdDeviation="2" flood-opacity="0.1"/>
    </filter>
  </defs>

  <rect width="1000" height="480" fill="#FAFBFC" rx="8"/>

  <!-- Title -->
  <rect x="0" y="0" width="1000" height="50" rx="8" fill="url(#hdr)"/>
  <rect x="0" y="40" width="1000" height="10" fill="url(#hdr)"/>
  <text x="500" y="34" text-anchor="middle" font-size="20" font-weight="bold" fill="white">功能模块总览（简版）</text>

  <!-- Frontend -->
  <rect x="20" y="65" width="470" height="395" rx="10" fill="url(#front)" stroke="#4A90D9" stroke-width="1.5" filter="url(#sh)"/>
  <rect x="20" y="65" width="470" height="38" rx="10" fill="#4A90D9"/>
  <rect x="20" y="90" width="470" height="13" fill="#4A90D9"/>
  <text x="255" y="90" text-anchor="middle" font-size="15" font-weight="bold" fill="white">前台 — 分析工作空间</text>

  <rect x="35" y="115" width="210" height="45" rx="8" fill="white" stroke="#4A90D9" stroke-width="1" filter="url(#sh)"/>
  <rect x="35" y="115" width="210" height="28" rx="8" fill="#4A90D9"/>
  <rect x="35" y="131" width="210" height="12" fill="#4A90D9"/>
  <text x="140" y="135" text-anchor="middle" font-size="13" font-weight="bold" fill="white">研究报告</text>
  <text x="140" y="153" text-anchor="middle" font-size="10" fill="#64748B">检索 · 筛选 · 详情查看与编辑</text>

  <rect x="265" y="115" width="210" height="45" rx="8" fill="white" stroke="#4A90D9" stroke-width="1" filter="url(#sh)"/>
  <rect x="265" y="115" width="210" height="28" rx="8" fill="#4A90D9"/>
  <rect x="265" y="131" width="210" height="12" fill="#4A90D9"/>
  <text x="370" y="135" text-anchor="middle" font-size="13" font-weight="bold" fill="white">资料上传与智能提取</text>
  <text x="370" y="153" text-anchor="middle" font-size="10" fill="#64748B">多格式上传 · 自动提取 · 知识词条</text>

  <rect x="35" y="175" width="210" height="45" rx="8" fill="white" stroke="#4A90D9" stroke-width="1" filter="url(#sh)"/>
  <rect x="35" y="175" width="210" height="28" rx="8" fill="#4A90D9"/>
  <rect x="35" y="191" width="210" height="12" fill="#4A90D9"/>
  <text x="140" y="195" text-anchor="middle" font-size="13" font-weight="bold" fill="white">智能问答（Graph-RAG）</text>
  <text x="140" y="213" text-anchor="middle" font-size="10" fill="#64748B">语义检索 · 交叉验证 · 溯源 · 置信度</text>

  <rect x="265" y="175" width="210" height="45" rx="8" fill="white" stroke="#4A90D9" stroke-width="1" filter="url(#sh)"/>
  <rect x="265" y="175" width="210" height="28" rx="8" fill="#4A90D9"/>
  <rect x="265" y="191" width="210" height="12" fill="#4A90D9"/>
  <text x="370" y="195" text-anchor="middle" font-size="13" font-weight="bold" fill="white">智能综合分析与报告</text>
  <text x="370" y="213" text-anchor="middle" font-size="10" fill="#64748B">对比 · 趋势 · 风险 · 态势 · 自动初稿</text>

  <rect x="35" y="235" width="210" height="45" rx="8" fill="white" stroke="#4A90D9" stroke-width="1" filter="url(#sh)"/>
  <rect x="35" y="235" width="210" height="28" rx="8" fill="#4A90D9"/>
  <rect x="35" y="251" width="210" height="12" fill="#4A90D9"/>
  <text x="140" y="255" text-anchor="middle" font-size="13" font-weight="bold" fill="white">知识图谱</text>
  <text x="140" y="273" text-anchor="middle" font-size="10" fill="#64748B">关联可视化 · 社区检测 · 洞察</text>

  <rect x="265" y="235" width="210" height="45" rx="8" fill="white" stroke="#4A90D9" stroke-width="1" filter="url(#sh)"/>
  <rect x="265" y="235" width="210" height="28" rx="8" fill="#4A90D9"/>
  <rect x="265" y="251" width="210" height="12" fill="#4A90D9"/>
  <text x="370" y="255" text-anchor="middle" font-size="13" font-weight="bold" fill="white">结论冲突</text>
  <text x="370" y="273" text-anchor="middle" font-size="10" fill="#64748B">自动检测 · 分级标注 · 处置建议</text>

  <rect x="35" y="295" width="440" height="45" rx="8" fill="white" stroke="#4A90D9" stroke-width="1" filter="url(#sh)"/>
  <rect x="35" y="295" width="440" height="28" rx="8" fill="#4A90D9"/>
  <rect x="35" y="311" width="440" height="12" fill="#4A90D9"/>
  <text x="255" y="315" text-anchor="middle" font-size="13" font-weight="bold" fill="white">方向建议</text>
  <text x="255" y="333" text-anchor="middle" font-size="10" fill="#64748B">覆盖度分析 · 空白识别 · 可行性评估 · 优先级排序</text>

  <text x="255" y="370" text-anchor="middle" font-size="11" fill="#4A90D9">使用者：一线分析人员</text>

  <!-- Divider -->
  <line x1="505" y1="65" x2="505" y2="460" stroke="#CBD5E1" stroke-width="1.5" stroke-dasharray="6,4"/>

  <!-- Backend -->
  <rect x="520" y="65" width="460" height="395" rx="10" fill="url(#back)" stroke="#3D8B3D" stroke-width="1.5" filter="url(#sh)"/>
  <rect x="520" y="65" width="460" height="38" rx="10" fill="#3D8B3D"/>
  <rect x="520" y="90" width="460" height="13" fill="#3D8B3D"/>
  <text x="750" y="90" text-anchor="middle" font-size="15" font-weight="bold" fill="white">后台 — 管理工作空间</text>

  <!-- Info Library -->
  <rect x="535" y="115" width="430" height="75" rx="8" fill="white" stroke="#3D8B3D" stroke-width="1" filter="url(#sh)"/>
  <rect x="535" y="115" width="430" height="28" rx="8" fill="#3D8B3D"/>
  <rect x="535" y="131" width="430" height="12" fill="#3D8B3D"/>
  <text x="750" y="135" text-anchor="middle" font-size="13" font-weight="bold" fill="white">信息库（四个子库）</text>
  <text x="600" y="158" text-anchor="middle" font-size="11" fill="#2D6A2D">研究报告库</text>
  <text x="700" y="158" text-anchor="middle" font-size="11" fill="#2D6A2D">动态信息库</text>
  <text x="800" y="158" text-anchor="middle" font-size="11" fill="#2D6A2D">译丛译著库</text>
  <text x="900" y="158" text-anchor="middle" font-size="11" fill="#2D6A2D">图表库</text>
  <text x="750" y="180" text-anchor="middle" font-size="10" fill="#64748B">上传 · 审核 · 分类 · 编辑 · 统一详情页</text>

  <!-- Project + Org -->
  <rect x="535" y="205" width="205" height="45" rx="8" fill="white" stroke="#3D8B3D" stroke-width="1" filter="url(#sh)"/>
  <rect x="535" y="205" width="205" height="28" rx="8" fill="#3D8B3D"/>
  <rect x="535" y="221" width="205" height="12" fill="#3D8B3D"/>
  <text x="637" y="225" text-anchor="middle" font-size="12" font-weight="bold" fill="white">项目库</text>
  <text x="637" y="244" text-anchor="middle" font-size="10" fill="#64748B">卡片管理 · 全生命周期 · 双向关联</text>

  <rect x="760" y="205" width="205" height="45" rx="8" fill="white" stroke="#3D8B3D" stroke-width="1" filter="url(#sh)"/>
  <rect x="760" y="205" width="205" height="28" rx="8" fill="#3D8B3D"/>
  <rect x="760" y="221" width="205" height="12" fill="#3D8B3D"/>
  <text x="862" y="225" text-anchor="middle" font-size="12" font-weight="bold" fill="white">组织架构库</text>
  <text x="862" y="244" text-anchor="middle" font-size="10" fill="#64748B">树形结构 · 统计面板 · 项目跳转</text>

  <!-- Q&A + Research -->
  <rect x="535" y="265" width="205" height="45" rx="8" fill="white" stroke="#3D8B3D" stroke-width="1" filter="url(#sh)"/>
  <rect x="535" y="265" width="205" height="28" rx="8" fill="#3D8B3D"/>
  <rect x="535" y="281" width="205" height="12" fill="#3D8B3D"/>
  <text x="637" y="285" text-anchor="middle" font-size="12" font-weight="bold" fill="white">智能问答管理</text>
  <text x="637" y="304" text-anchor="middle" font-size="10" fill="#64748B">问答历史 · 质量抽查 · 热点识别</text>

  <rect x="760" y="265" width="205" height="45" rx="8" fill="white" stroke="#3D8B3D" stroke-width="1" filter="url(#sh)"/>
  <rect x="760" y="265" width="205" height="28" rx="8" fill="#3D8B3D"/>
  <rect x="760" y="281" width="205" height="12" fill="#3D8B3D"/>
  <text x="862" y="285" text-anchor="middle" font-size="12" font-weight="bold" fill="white">综合研究管理</text>
  <text x="862" y="304" text-anchor="middle" font-size="10" fill="#64748B">四类报告 · 进度追踪 · 审核</text>

  <!-- Conflict + Direction -->
  <rect x="535" y="325" width="205" height="45" rx="8" fill="white" stroke="#3D8B3D" stroke-width="1" filter="url(#sh)"/>
  <rect x="535" y="325" width="205" height="28" rx="8" fill="#3D8B3D"/>
  <rect x="535" y="341" width="205" height="12" fill="#3D8B3D"/>
  <text x="637" y="345" text-anchor="middle" font-size="12" font-weight="bold" fill="white">结论冲突管理</text>
  <text x="637" y="364" text-anchor="middle" font-size="10" fill="#64748B">交叉比对 · 分级 · 采信建议</text>

  <rect x="760" y="325" width="205" height="45" rx="8" fill="white" stroke="#3D8B3D" stroke-width="1" filter="url(#sh)"/>
  <rect x="760" y="325" width="205" height="28" rx="8" fill="#3D8B3D"/>
  <rect x="760" y="341" width="205" height="12" fill="#3D8B3D"/>
  <text x="862" y="345" text-anchor="middle" font-size="12" font-weight="bold" fill="white">方向建议</text>
  <text x="862" y="364" text-anchor="middle" font-size="10" fill="#64748B">覆盖分析 · 空白识别 · 优先级</text>

  <!-- KG + Config -->
  <rect x="535" y="385" width="205" height="45" rx="8" fill="white" stroke="#3D8B3D" stroke-width="1" filter="url(#sh)"/>
  <rect x="535" y="385" width="205" height="28" rx="8" fill="#3D8B3D"/>
  <rect x="535" y="401" width="205" height="12" fill="#3D8B3D"/>
  <text x="637" y="405" text-anchor="middle" font-size="12" font-weight="bold" fill="white">知识图谱管理</text>
  <text x="637" y="424" text-anchor="middle" font-size="10" fill="#64748B">全局视图 · 社区检测 · 洞察</text>

  <rect x="760" y="385" width="205" height="45" rx="8" fill="white" stroke="#3D8B3D" stroke-width="1" filter="url(#sh)"/>
  <rect x="760" y="385" width="205" height="28" rx="8" fill="#3D8B3D"/>
  <rect x="760" y="401" width="205" height="12" fill="#3D8B3D"/>
  <text x="862" y="405" text-anchor="middle" font-size="12" font-weight="bold" fill="white">系统配置</text>
  <text x="862" y="424" text-anchor="middle" font-size="10" fill="#64748B">图谱权重 · 平台信息</text>

  <text x="750" y="455" text-anchor="middle" font-size="11" fill="#3D8B3D">使用者：管理人员</text>
</svg>
